<mxfile host="app.diagrams.net" agent="Mozilla/5.0 (Windows NT 10.0; Win64; x64) AppleWebKit/537.36 (KHTML, like Gecko) Chrome/129.0.0.0 Safari/537.36 Edg/129.0.0.0" version="24.7.12">
  <diagram name="Page-1" id="ywcTNB9aZr9tDC0TdeI4">
    <mxGraphModel dx="1434" dy="827" grid="0" gridSize="10" guides="1" tooltips="1" connect="1" arrows="1" fold="1" page="1" pageScale="1" pageWidth="1654" pageHeight="2336" math="0" shadow="0">
      <root>
        <mxCell id="0" />
        <mxCell id="1" parent="0" />
        <mxCell id="Q4vxLiz5nYjD_q5xdy93-6" style="edgeStyle=orthogonalEdgeStyle;rounded=0;orthogonalLoop=1;jettySize=auto;html=1;exitX=1;exitY=0.5;exitDx=0;exitDy=0;" edge="1" parent="1" source="Q4vxLiz5nYjD_q5xdy93-1" target="Q4vxLiz5nYjD_q5xdy93-14">
          <mxGeometry relative="1" as="geometry">
            <mxPoint x="277" y="201.5" as="targetPoint" />
          </mxGeometry>
        </mxCell>
        <mxCell id="Q4vxLiz5nYjD_q5xdy93-8" value="a" style="edgeLabel;html=1;align=center;verticalAlign=middle;resizable=0;points=[];" vertex="1" connectable="0" parent="Q4vxLiz5nYjD_q5xdy93-6">
          <mxGeometry x="-0.193" y="2" relative="1" as="geometry">
            <mxPoint y="-9" as="offset" />
          </mxGeometry>
        </mxCell>
        <mxCell id="Q4vxLiz5nYjD_q5xdy93-1" value="q0" style="ellipse;whiteSpace=wrap;html=1;aspect=fixed;" vertex="1" parent="1">
          <mxGeometry x="173" y="178" width="47" height="47" as="geometry" />
        </mxCell>
        <mxCell id="Q4vxLiz5nYjD_q5xdy93-2" value="" style="endArrow=classic;html=1;rounded=0;" edge="1" parent="1" target="Q4vxLiz5nYjD_q5xdy93-1">
          <mxGeometry width="50" height="50" relative="1" as="geometry">
            <mxPoint x="120" y="202" as="sourcePoint" />
            <mxPoint x="485" y="316" as="targetPoint" />
          </mxGeometry>
        </mxCell>
        <mxCell id="Q4vxLiz5nYjD_q5xdy93-10" value="số bát phân:&lt;div&gt;- a: S&lt;span style=&quot;background-color: initial;&quot;&gt;ố từ 1-7&lt;/span&gt;&lt;/div&gt;" style="text;html=1;align=left;verticalAlign=middle;resizable=0;points=[];autosize=1;strokeColor=none;fillColor=none;" vertex="1" parent="1">
          <mxGeometry x="114" y="84" width="89" height="41" as="geometry" />
        </mxCell>
        <mxCell id="Q4vxLiz5nYjD_q5xdy93-11" style="edgeStyle=orthogonalEdgeStyle;rounded=0;orthogonalLoop=1;jettySize=auto;html=1;curved=1;" edge="1" parent="1" source="Q4vxLiz5nYjD_q5xdy93-14" target="Q4vxLiz5nYjD_q5xdy93-14">
          <mxGeometry relative="1" as="geometry">
            <mxPoint x="317.11700935788394" y="184.88299064211606" as="sourcePoint" />
            <mxPoint x="283.88299064211606" y="184.88299064211606" as="targetPoint" />
            <Array as="points">
              <mxPoint x="317" y="158" />
              <mxPoint x="284" y="158" />
            </Array>
          </mxGeometry>
        </mxCell>
        <mxCell id="Q4vxLiz5nYjD_q5xdy93-13" value="a,0" style="edgeLabel;html=1;align=center;verticalAlign=middle;resizable=0;points=[];" vertex="1" connectable="0" parent="Q4vxLiz5nYjD_q5xdy93-11">
          <mxGeometry x="0.0115" y="-2" relative="1" as="geometry">
            <mxPoint x="1" y="-8" as="offset" />
          </mxGeometry>
        </mxCell>
        <mxCell id="Q4vxLiz5nYjD_q5xdy93-14" value="q1" style="ellipse;shape=doubleEllipse;whiteSpace=wrap;html=1;aspect=fixed;" vertex="1" parent="1">
          <mxGeometry x="272" y="174.5" width="54" height="54" as="geometry" />
        </mxCell>
        <mxCell id="Q4vxLiz5nYjD_q5xdy93-15" value="Số thập phân:&lt;div&gt;- a: Số từ 1-9&lt;/div&gt;" style="text;html=1;align=left;verticalAlign=middle;resizable=0;points=[];autosize=1;strokeColor=none;fillColor=none;" vertex="1" parent="1">
          <mxGeometry x="114" y="243" width="93" height="41" as="geometry" />
        </mxCell>
        <mxCell id="Q4vxLiz5nYjD_q5xdy93-19" style="rounded=0;orthogonalLoop=1;jettySize=auto;html=1;" edge="1" parent="1" source="Q4vxLiz5nYjD_q5xdy93-16" target="Q4vxLiz5nYjD_q5xdy93-17">
          <mxGeometry relative="1" as="geometry" />
        </mxCell>
        <mxCell id="Q4vxLiz5nYjD_q5xdy93-20" value="+,-" style="edgeLabel;html=1;align=center;verticalAlign=middle;resizable=0;points=[];" vertex="1" connectable="0" parent="Q4vxLiz5nYjD_q5xdy93-19">
          <mxGeometry x="-0.0631" y="-1" relative="1" as="geometry">
            <mxPoint x="10" y="-8" as="offset" />
          </mxGeometry>
        </mxCell>
        <mxCell id="Q4vxLiz5nYjD_q5xdy93-22" style="rounded=0;orthogonalLoop=1;jettySize=auto;html=1;" edge="1" parent="1" source="Q4vxLiz5nYjD_q5xdy93-16" target="Q4vxLiz5nYjD_q5xdy93-27">
          <mxGeometry relative="1" as="geometry">
            <mxPoint x="370" y="352.5" as="targetPoint" />
          </mxGeometry>
        </mxCell>
        <mxCell id="Q4vxLiz5nYjD_q5xdy93-24" value="a" style="edgeLabel;html=1;align=center;verticalAlign=middle;resizable=0;points=[];" vertex="1" connectable="0" parent="Q4vxLiz5nYjD_q5xdy93-22">
          <mxGeometry x="-0.1163" relative="1" as="geometry">
            <mxPoint x="-6" y="-11" as="offset" />
          </mxGeometry>
        </mxCell>
        <mxCell id="Q4vxLiz5nYjD_q5xdy93-16" value="q0" style="ellipse;whiteSpace=wrap;html=1;aspect=fixed;" vertex="1" parent="1">
          <mxGeometry x="165" y="329" width="47" height="47" as="geometry" />
        </mxCell>
        <mxCell id="Q4vxLiz5nYjD_q5xdy93-25" style="rounded=0;orthogonalLoop=1;jettySize=auto;html=1;exitX=1;exitY=0;exitDx=0;exitDy=0;" edge="1" parent="1" source="Q4vxLiz5nYjD_q5xdy93-17" target="Q4vxLiz5nYjD_q5xdy93-27">
          <mxGeometry relative="1" as="geometry">
            <mxPoint x="372.63546396580114" y="363.3130077257524" as="targetPoint" />
          </mxGeometry>
        </mxCell>
        <mxCell id="Q4vxLiz5nYjD_q5xdy93-39" value="a" style="edgeLabel;html=1;align=center;verticalAlign=middle;resizable=0;points=[];" vertex="1" connectable="0" parent="Q4vxLiz5nYjD_q5xdy93-25">
          <mxGeometry x="-0.1196" relative="1" as="geometry">
            <mxPoint x="-6" y="-9" as="offset" />
          </mxGeometry>
        </mxCell>
        <mxCell id="Q4vxLiz5nYjD_q5xdy93-26" style="rounded=0;orthogonalLoop=1;jettySize=auto;html=1;exitX=1;exitY=0.5;exitDx=0;exitDy=0;" edge="1" parent="1" source="Q4vxLiz5nYjD_q5xdy93-17" target="Q4vxLiz5nYjD_q5xdy93-28">
          <mxGeometry relative="1" as="geometry">
            <mxPoint x="370" y="440.5" as="targetPoint" />
          </mxGeometry>
        </mxCell>
        <mxCell id="Q4vxLiz5nYjD_q5xdy93-29" value="0" style="edgeLabel;html=1;align=center;verticalAlign=middle;resizable=0;points=[];" vertex="1" connectable="0" parent="Q4vxLiz5nYjD_q5xdy93-26">
          <mxGeometry x="-0.1076" y="-1" relative="1" as="geometry">
            <mxPoint x="6" y="-12" as="offset" />
          </mxGeometry>
        </mxCell>
        <mxCell id="Q4vxLiz5nYjD_q5xdy93-17" value="q1" style="ellipse;whiteSpace=wrap;html=1;aspect=fixed;" vertex="1" parent="1">
          <mxGeometry x="216" y="417" width="47" height="47" as="geometry" />
        </mxCell>
        <mxCell id="Q4vxLiz5nYjD_q5xdy93-23" value="" style="endArrow=classic;html=1;rounded=0;" edge="1" parent="1" target="Q4vxLiz5nYjD_q5xdy93-16">
          <mxGeometry width="50" height="50" relative="1" as="geometry">
            <mxPoint x="114" y="352" as="sourcePoint" />
            <mxPoint x="510" y="265" as="targetPoint" />
          </mxGeometry>
        </mxCell>
        <mxCell id="Q4vxLiz5nYjD_q5xdy93-27" value="q3" style="ellipse;shape=doubleEllipse;whiteSpace=wrap;html=1;aspect=fixed;" vertex="1" parent="1">
          <mxGeometry x="352" y="322" width="54" height="54" as="geometry" />
        </mxCell>
        <mxCell id="Q4vxLiz5nYjD_q5xdy93-28" value="q2" style="ellipse;shape=doubleEllipse;whiteSpace=wrap;html=1;aspect=fixed;" vertex="1" parent="1">
          <mxGeometry x="352" y="410" width="54" height="54" as="geometry" />
        </mxCell>
        <mxCell id="Q4vxLiz5nYjD_q5xdy93-30" style="edgeStyle=orthogonalEdgeStyle;rounded=0;orthogonalLoop=1;jettySize=auto;html=1;exitX=1;exitY=0;exitDx=0;exitDy=0;curved=1;entryX=0.5;entryY=0;entryDx=0;entryDy=0;" edge="1" parent="1" source="Q4vxLiz5nYjD_q5xdy93-27" target="Q4vxLiz5nYjD_q5xdy93-27">
          <mxGeometry relative="1" as="geometry">
            <Array as="points">
              <mxPoint x="398" y="310" />
              <mxPoint x="379" y="310" />
            </Array>
          </mxGeometry>
        </mxCell>
        <mxCell id="Q4vxLiz5nYjD_q5xdy93-31" value="a,0" style="edgeLabel;html=1;align=center;verticalAlign=middle;resizable=0;points=[];" vertex="1" connectable="0" parent="Q4vxLiz5nYjD_q5xdy93-30">
          <mxGeometry x="0.1031" relative="1" as="geometry">
            <mxPoint y="-10" as="offset" />
          </mxGeometry>
        </mxCell>
        <mxCell id="Q4vxLiz5nYjD_q5xdy93-32" style="edgeStyle=orthogonalEdgeStyle;rounded=0;orthogonalLoop=1;jettySize=auto;html=1;exitX=1;exitY=0;exitDx=0;exitDy=0;curved=1;entryX=0;entryY=0;entryDx=0;entryDy=0;" edge="1" parent="1" source="Q4vxLiz5nYjD_q5xdy93-28" target="Q4vxLiz5nYjD_q5xdy93-28">
          <mxGeometry relative="1" as="geometry">
            <Array as="points">
              <mxPoint x="398" y="393" />
              <mxPoint x="360" y="393" />
            </Array>
          </mxGeometry>
        </mxCell>
        <mxCell id="Q4vxLiz5nYjD_q5xdy93-33" value="0" style="edgeLabel;html=1;align=center;verticalAlign=middle;resizable=0;points=[];" vertex="1" connectable="0" parent="Q4vxLiz5nYjD_q5xdy93-32">
          <mxGeometry x="-0.0454" relative="1" as="geometry">
            <mxPoint x="-5" y="-9" as="offset" />
          </mxGeometry>
        </mxCell>
        <mxCell id="Q4vxLiz5nYjD_q5xdy93-41" value="Số thực:&lt;div&gt;- a: Số từ 1-9&lt;/div&gt;" style="text;html=1;align=left;verticalAlign=middle;resizable=0;points=[];autosize=1;strokeColor=none;fillColor=none;" vertex="1" parent="1">
          <mxGeometry x="114" y="490" width="89" height="41" as="geometry" />
        </mxCell>
        <mxCell id="Q4vxLiz5nYjD_q5xdy93-42" style="rounded=0;orthogonalLoop=1;jettySize=auto;html=1;" edge="1" parent="1" source="Q4vxLiz5nYjD_q5xdy93-46" target="Q4vxLiz5nYjD_q5xdy93-51">
          <mxGeometry relative="1" as="geometry" />
        </mxCell>
        <mxCell id="Q4vxLiz5nYjD_q5xdy93-43" value="+,-" style="edgeLabel;html=1;align=center;verticalAlign=middle;resizable=0;points=[];" vertex="1" connectable="0" parent="Q4vxLiz5nYjD_q5xdy93-42">
          <mxGeometry x="-0.0631" y="-1" relative="1" as="geometry">
            <mxPoint x="10" y="-8" as="offset" />
          </mxGeometry>
        </mxCell>
        <mxCell id="Q4vxLiz5nYjD_q5xdy93-44" style="rounded=0;orthogonalLoop=1;jettySize=auto;html=1;edgeStyle=orthogonalEdgeStyle;curved=1;entryX=0;entryY=0;entryDx=0;entryDy=0;" edge="1" parent="1" source="Q4vxLiz5nYjD_q5xdy93-46" target="Q4vxLiz5nYjD_q5xdy93-53">
          <mxGeometry relative="1" as="geometry">
            <mxPoint x="381" y="670.5" as="targetPoint" />
            <Array as="points">
              <mxPoint x="200" y="559" />
              <mxPoint x="478" y="559" />
            </Array>
          </mxGeometry>
        </mxCell>
        <mxCell id="Q4vxLiz5nYjD_q5xdy93-45" value="a" style="edgeLabel;html=1;align=center;verticalAlign=middle;resizable=0;points=[];" vertex="1" connectable="0" parent="Q4vxLiz5nYjD_q5xdy93-44">
          <mxGeometry x="-0.1163" relative="1" as="geometry">
            <mxPoint x="17" y="-14" as="offset" />
          </mxGeometry>
        </mxCell>
        <mxCell id="Q4vxLiz5nYjD_q5xdy93-60" style="edgeStyle=orthogonalEdgeStyle;rounded=0;orthogonalLoop=1;jettySize=auto;html=1;exitX=1;exitY=0.5;exitDx=0;exitDy=0;" edge="1" parent="1" source="Q4vxLiz5nYjD_q5xdy93-46" target="Q4vxLiz5nYjD_q5xdy93-59">
          <mxGeometry relative="1" as="geometry" />
        </mxCell>
        <mxCell id="Q4vxLiz5nYjD_q5xdy93-61" value="a" style="edgeLabel;html=1;align=center;verticalAlign=middle;resizable=0;points=[];" vertex="1" connectable="0" parent="Q4vxLiz5nYjD_q5xdy93-60">
          <mxGeometry x="-0.011" y="1" relative="1" as="geometry">
            <mxPoint y="1" as="offset" />
          </mxGeometry>
        </mxCell>
        <mxCell id="Q4vxLiz5nYjD_q5xdy93-75" style="rounded=0;orthogonalLoop=1;jettySize=auto;html=1;exitX=1;exitY=0;exitDx=0;exitDy=0;" edge="1" parent="1" source="Q4vxLiz5nYjD_q5xdy93-46" target="Q4vxLiz5nYjD_q5xdy93-74">
          <mxGeometry relative="1" as="geometry" />
        </mxCell>
        <mxCell id="Q4vxLiz5nYjD_q5xdy93-77" value="." style="edgeLabel;html=1;align=center;verticalAlign=middle;resizable=0;points=[];" vertex="1" connectable="0" parent="Q4vxLiz5nYjD_q5xdy93-75">
          <mxGeometry x="0.1305" y="-2" relative="1" as="geometry">
            <mxPoint x="-11" y="-12" as="offset" />
          </mxGeometry>
        </mxCell>
        <mxCell id="Q4vxLiz5nYjD_q5xdy93-46" value="q0" style="ellipse;whiteSpace=wrap;html=1;aspect=fixed;" vertex="1" parent="1">
          <mxGeometry x="176" y="647" width="47" height="47" as="geometry" />
        </mxCell>
        <mxCell id="Q4vxLiz5nYjD_q5xdy93-47" style="rounded=0;orthogonalLoop=1;jettySize=auto;html=1;exitX=1;exitY=0;exitDx=0;exitDy=0;edgeStyle=orthogonalEdgeStyle;curved=1;" edge="1" parent="1" source="Q4vxLiz5nYjD_q5xdy93-51" target="Q4vxLiz5nYjD_q5xdy93-53">
          <mxGeometry relative="1" as="geometry">
            <mxPoint x="383.63546396580114" y="681.3130077257524" as="targetPoint" />
            <Array as="points">
              <mxPoint x="479" y="818" />
            </Array>
          </mxGeometry>
        </mxCell>
        <mxCell id="Q4vxLiz5nYjD_q5xdy93-48" value="a" style="edgeLabel;html=1;align=center;verticalAlign=middle;resizable=0;points=[];" vertex="1" connectable="0" parent="Q4vxLiz5nYjD_q5xdy93-47">
          <mxGeometry x="-0.1196" relative="1" as="geometry">
            <mxPoint x="41" y="-47" as="offset" />
          </mxGeometry>
        </mxCell>
        <mxCell id="Q4vxLiz5nYjD_q5xdy93-49" style="rounded=0;orthogonalLoop=1;jettySize=auto;html=1;edgeStyle=orthogonalEdgeStyle;curved=1;exitX=0.5;exitY=1;exitDx=0;exitDy=0;" edge="1" parent="1" source="Q4vxLiz5nYjD_q5xdy93-51" target="Q4vxLiz5nYjD_q5xdy93-54">
          <mxGeometry relative="1" as="geometry">
            <mxPoint x="381" y="758.5" as="targetPoint" />
            <Array as="points">
              <mxPoint x="200" y="924" />
              <mxPoint x="502" y="924" />
            </Array>
          </mxGeometry>
        </mxCell>
        <mxCell id="Q4vxLiz5nYjD_q5xdy93-50" value="0" style="edgeLabel;html=1;align=center;verticalAlign=middle;resizable=0;points=[];" vertex="1" connectable="0" parent="Q4vxLiz5nYjD_q5xdy93-49">
          <mxGeometry x="-0.1076" y="-1" relative="1" as="geometry">
            <mxPoint x="33" y="13" as="offset" />
          </mxGeometry>
        </mxCell>
        <mxCell id="Q4vxLiz5nYjD_q5xdy93-65" style="rounded=0;orthogonalLoop=1;jettySize=auto;html=1;exitX=1;exitY=0;exitDx=0;exitDy=0;" edge="1" parent="1" source="Q4vxLiz5nYjD_q5xdy93-51" target="Q4vxLiz5nYjD_q5xdy93-64">
          <mxGeometry relative="1" as="geometry" />
        </mxCell>
        <mxCell id="Q4vxLiz5nYjD_q5xdy93-67" value="a" style="edgeLabel;html=1;align=center;verticalAlign=middle;resizable=0;points=[];" vertex="1" connectable="0" parent="Q4vxLiz5nYjD_q5xdy93-65">
          <mxGeometry x="0.1391" y="-4" relative="1" as="geometry">
            <mxPoint x="-8" y="-14" as="offset" />
          </mxGeometry>
        </mxCell>
        <mxCell id="Q4vxLiz5nYjD_q5xdy93-70" style="rounded=0;orthogonalLoop=1;jettySize=auto;html=1;exitX=1;exitY=0.5;exitDx=0;exitDy=0;" edge="1" parent="1" source="Q4vxLiz5nYjD_q5xdy93-51" target="Q4vxLiz5nYjD_q5xdy93-69">
          <mxGeometry relative="1" as="geometry" />
        </mxCell>
        <mxCell id="Q4vxLiz5nYjD_q5xdy93-72" value="0" style="edgeLabel;html=1;align=center;verticalAlign=middle;resizable=0;points=[];" vertex="1" connectable="0" parent="Q4vxLiz5nYjD_q5xdy93-70">
          <mxGeometry x="0.162" y="-2" relative="1" as="geometry">
            <mxPoint x="6" y="13" as="offset" />
          </mxGeometry>
        </mxCell>
        <mxCell id="Q4vxLiz5nYjD_q5xdy93-80" style="rounded=0;orthogonalLoop=1;jettySize=auto;html=1;exitX=1;exitY=0;exitDx=0;exitDy=0;" edge="1" parent="1" source="Q4vxLiz5nYjD_q5xdy93-51" target="Q4vxLiz5nYjD_q5xdy93-79">
          <mxGeometry relative="1" as="geometry" />
        </mxCell>
        <mxCell id="Q4vxLiz5nYjD_q5xdy93-82" value="." style="edgeLabel;html=1;align=center;verticalAlign=middle;resizable=0;points=[];" vertex="1" connectable="0" parent="Q4vxLiz5nYjD_q5xdy93-80">
          <mxGeometry x="0.3958" y="-2" relative="1" as="geometry">
            <mxPoint x="-4" y="-13" as="offset" />
          </mxGeometry>
        </mxCell>
        <mxCell id="Q4vxLiz5nYjD_q5xdy93-51" value="q3" style="ellipse;whiteSpace=wrap;html=1;aspect=fixed;" vertex="1" parent="1">
          <mxGeometry x="176" y="806" width="47" height="47" as="geometry" />
        </mxCell>
        <mxCell id="Q4vxLiz5nYjD_q5xdy93-52" value="" style="endArrow=classic;html=1;rounded=0;" edge="1" parent="1" target="Q4vxLiz5nYjD_q5xdy93-46">
          <mxGeometry width="50" height="50" relative="1" as="geometry">
            <mxPoint x="125" y="670" as="sourcePoint" />
            <mxPoint x="521" y="583" as="targetPoint" />
          </mxGeometry>
        </mxCell>
        <mxCell id="Q4vxLiz5nYjD_q5xdy93-53" value="q7" style="ellipse;shape=doubleEllipse;whiteSpace=wrap;html=1;aspect=fixed;" vertex="1" parent="1">
          <mxGeometry x="470" y="643" width="54" height="54" as="geometry" />
        </mxCell>
        <mxCell id="Q4vxLiz5nYjD_q5xdy93-54" value="q8" style="ellipse;shape=doubleEllipse;whiteSpace=wrap;html=1;aspect=fixed;" vertex="1" parent="1">
          <mxGeometry x="475" y="806" width="54" height="54" as="geometry" />
        </mxCell>
        <mxCell id="Q4vxLiz5nYjD_q5xdy93-55" style="edgeStyle=orthogonalEdgeStyle;rounded=0;orthogonalLoop=1;jettySize=auto;html=1;exitX=1;exitY=0;exitDx=0;exitDy=0;curved=1;entryX=0.5;entryY=0;entryDx=0;entryDy=0;" edge="1" parent="1" source="Q4vxLiz5nYjD_q5xdy93-53" target="Q4vxLiz5nYjD_q5xdy93-53">
          <mxGeometry relative="1" as="geometry">
            <Array as="points">
              <mxPoint x="516" y="631" />
              <mxPoint x="497" y="631" />
            </Array>
          </mxGeometry>
        </mxCell>
        <mxCell id="Q4vxLiz5nYjD_q5xdy93-56" value="a,0" style="edgeLabel;html=1;align=center;verticalAlign=middle;resizable=0;points=[];" vertex="1" connectable="0" parent="Q4vxLiz5nYjD_q5xdy93-55">
          <mxGeometry x="0.1031" relative="1" as="geometry">
            <mxPoint y="-10" as="offset" />
          </mxGeometry>
        </mxCell>
        <mxCell id="Q4vxLiz5nYjD_q5xdy93-57" style="edgeStyle=orthogonalEdgeStyle;rounded=0;orthogonalLoop=1;jettySize=auto;html=1;exitX=1;exitY=0;exitDx=0;exitDy=0;curved=1;entryX=0;entryY=0;entryDx=0;entryDy=0;" edge="1" parent="1" source="Q4vxLiz5nYjD_q5xdy93-54" target="Q4vxLiz5nYjD_q5xdy93-54">
          <mxGeometry relative="1" as="geometry">
            <Array as="points">
              <mxPoint x="521" y="789" />
              <mxPoint x="483" y="789" />
            </Array>
          </mxGeometry>
        </mxCell>
        <mxCell id="Q4vxLiz5nYjD_q5xdy93-58" value="0" style="edgeLabel;html=1;align=center;verticalAlign=middle;resizable=0;points=[];" vertex="1" connectable="0" parent="Q4vxLiz5nYjD_q5xdy93-57">
          <mxGeometry x="-0.0454" relative="1" as="geometry">
            <mxPoint x="-5" y="-9" as="offset" />
          </mxGeometry>
        </mxCell>
        <mxCell id="Q4vxLiz5nYjD_q5xdy93-62" style="edgeStyle=orthogonalEdgeStyle;rounded=0;orthogonalLoop=1;jettySize=auto;html=1;exitX=1;exitY=0.5;exitDx=0;exitDy=0;" edge="1" parent="1" source="Q4vxLiz5nYjD_q5xdy93-59" target="Q4vxLiz5nYjD_q5xdy93-53">
          <mxGeometry relative="1" as="geometry" />
        </mxCell>
        <mxCell id="Q4vxLiz5nYjD_q5xdy93-63" value="." style="edgeLabel;html=1;align=center;verticalAlign=middle;resizable=0;points=[];" vertex="1" connectable="0" parent="Q4vxLiz5nYjD_q5xdy93-62">
          <mxGeometry x="-0.0129" relative="1" as="geometry">
            <mxPoint x="-2" y="-8" as="offset" />
          </mxGeometry>
        </mxCell>
        <mxCell id="Q4vxLiz5nYjD_q5xdy93-59" value="q2" style="ellipse;whiteSpace=wrap;html=1;aspect=fixed;" vertex="1" parent="1">
          <mxGeometry x="314" y="647" width="47" height="47" as="geometry" />
        </mxCell>
        <mxCell id="Q4vxLiz5nYjD_q5xdy93-66" style="rounded=0;orthogonalLoop=1;jettySize=auto;html=1;" edge="1" parent="1" source="Q4vxLiz5nYjD_q5xdy93-64" target="Q4vxLiz5nYjD_q5xdy93-53">
          <mxGeometry relative="1" as="geometry" />
        </mxCell>
        <mxCell id="Q4vxLiz5nYjD_q5xdy93-68" value="." style="edgeLabel;html=1;align=center;verticalAlign=middle;resizable=0;points=[];" vertex="1" connectable="0" parent="Q4vxLiz5nYjD_q5xdy93-66">
          <mxGeometry x="-0.1134" y="-5" relative="1" as="geometry">
            <mxPoint x="-8" y="-12" as="offset" />
          </mxGeometry>
        </mxCell>
        <mxCell id="Q4vxLiz5nYjD_q5xdy93-64" value="q4" style="ellipse;whiteSpace=wrap;html=1;aspect=fixed;" vertex="1" parent="1">
          <mxGeometry x="284" y="702" width="47" height="47" as="geometry" />
        </mxCell>
        <mxCell id="Q4vxLiz5nYjD_q5xdy93-71" style="rounded=0;orthogonalLoop=1;jettySize=auto;html=1;exitX=1;exitY=0.5;exitDx=0;exitDy=0;" edge="1" parent="1" source="Q4vxLiz5nYjD_q5xdy93-69" target="Q4vxLiz5nYjD_q5xdy93-54">
          <mxGeometry relative="1" as="geometry" />
        </mxCell>
        <mxCell id="Q4vxLiz5nYjD_q5xdy93-73" value="." style="edgeLabel;html=1;align=center;verticalAlign=middle;resizable=0;points=[];" vertex="1" connectable="0" parent="Q4vxLiz5nYjD_q5xdy93-71">
          <mxGeometry x="-0.0958" relative="1" as="geometry">
            <mxPoint x="-1" y="9" as="offset" />
          </mxGeometry>
        </mxCell>
        <mxCell id="Q4vxLiz5nYjD_q5xdy93-69" value="q6" style="ellipse;whiteSpace=wrap;html=1;aspect=fixed;" vertex="1" parent="1">
          <mxGeometry x="318" y="834" width="47" height="47" as="geometry" />
        </mxCell>
        <mxCell id="Q4vxLiz5nYjD_q5xdy93-76" style="rounded=0;orthogonalLoop=1;jettySize=auto;html=1;exitX=1;exitY=0.5;exitDx=0;exitDy=0;" edge="1" parent="1" source="Q4vxLiz5nYjD_q5xdy93-74" target="Q4vxLiz5nYjD_q5xdy93-53">
          <mxGeometry relative="1" as="geometry" />
        </mxCell>
        <mxCell id="Q4vxLiz5nYjD_q5xdy93-78" value="a,0" style="edgeLabel;html=1;align=center;verticalAlign=middle;resizable=0;points=[];" vertex="1" connectable="0" parent="Q4vxLiz5nYjD_q5xdy93-76">
          <mxGeometry x="-0.1762" y="1" relative="1" as="geometry">
            <mxPoint x="9" y="-9" as="offset" />
          </mxGeometry>
        </mxCell>
        <mxCell id="Q4vxLiz5nYjD_q5xdy93-74" value="q1" style="ellipse;whiteSpace=wrap;html=1;aspect=fixed;" vertex="1" parent="1">
          <mxGeometry x="309" y="567" width="47" height="47" as="geometry" />
        </mxCell>
        <mxCell id="Q4vxLiz5nYjD_q5xdy93-81" style="rounded=0;orthogonalLoop=1;jettySize=auto;html=1;exitX=1;exitY=0;exitDx=0;exitDy=0;" edge="1" parent="1" source="Q4vxLiz5nYjD_q5xdy93-79" target="Q4vxLiz5nYjD_q5xdy93-53">
          <mxGeometry relative="1" as="geometry" />
        </mxCell>
        <mxCell id="Q4vxLiz5nYjD_q5xdy93-83" value="a" style="edgeLabel;html=1;align=center;verticalAlign=middle;resizable=0;points=[];" vertex="1" connectable="0" parent="Q4vxLiz5nYjD_q5xdy93-81">
          <mxGeometry x="-0.2283" y="-1" relative="1" as="geometry">
            <mxPoint x="13" y="1" as="offset" />
          </mxGeometry>
        </mxCell>
        <mxCell id="Q4vxLiz5nYjD_q5xdy93-79" value="q5" style="ellipse;whiteSpace=wrap;html=1;aspect=fixed;" vertex="1" parent="1">
          <mxGeometry x="339" y="749" width="47" height="47" as="geometry" />
        </mxCell>
        <mxCell id="Q4vxLiz5nYjD_q5xdy93-89" style="edgeStyle=orthogonalEdgeStyle;rounded=0;orthogonalLoop=1;jettySize=auto;html=1;exitX=1;exitY=0;exitDx=0;exitDy=0;curved=1;entryX=0;entryY=0;entryDx=0;entryDy=0;" edge="1" parent="1" source="Q4vxLiz5nYjD_q5xdy93-59" target="Q4vxLiz5nYjD_q5xdy93-59">
          <mxGeometry relative="1" as="geometry">
            <Array as="points">
              <mxPoint x="354" y="632" />
              <mxPoint x="318" y="632" />
              <mxPoint x="318" y="654" />
            </Array>
          </mxGeometry>
        </mxCell>
        <mxCell id="Q4vxLiz5nYjD_q5xdy93-95" value="a,0" style="edgeLabel;html=1;align=center;verticalAlign=middle;resizable=0;points=[];" vertex="1" connectable="0" parent="Q4vxLiz5nYjD_q5xdy93-89">
          <mxGeometry x="-0.0097" y="-2" relative="1" as="geometry">
            <mxPoint x="-2" y="-7" as="offset" />
          </mxGeometry>
        </mxCell>
        <mxCell id="Q4vxLiz5nYjD_q5xdy93-91" style="edgeStyle=orthogonalEdgeStyle;rounded=0;orthogonalLoop=1;jettySize=auto;html=1;exitX=0.5;exitY=0;exitDx=0;exitDy=0;entryX=0;entryY=0.5;entryDx=0;entryDy=0;curved=1;" edge="1" parent="1" source="Q4vxLiz5nYjD_q5xdy93-64" target="Q4vxLiz5nYjD_q5xdy93-64">
          <mxGeometry relative="1" as="geometry">
            <Array as="points">
              <mxPoint x="308" y="695" />
              <mxPoint x="270" y="695" />
              <mxPoint x="270" y="726" />
            </Array>
          </mxGeometry>
        </mxCell>
        <mxCell id="Q4vxLiz5nYjD_q5xdy93-92" value="a,0" style="edgeLabel;html=1;align=center;verticalAlign=middle;resizable=0;points=[];" vertex="1" connectable="0" parent="Q4vxLiz5nYjD_q5xdy93-91">
          <mxGeometry x="0.0899" y="4" relative="1" as="geometry">
            <mxPoint x="-11" y="-11" as="offset" />
          </mxGeometry>
        </mxCell>
        <mxCell id="Q4vxLiz5nYjD_q5xdy93-96" style="edgeStyle=orthogonalEdgeStyle;rounded=0;orthogonalLoop=1;jettySize=auto;html=1;exitX=1;exitY=1;exitDx=0;exitDy=0;entryX=0;entryY=1;entryDx=0;entryDy=0;curved=1;" edge="1" parent="1" source="Q4vxLiz5nYjD_q5xdy93-69" target="Q4vxLiz5nYjD_q5xdy93-69">
          <mxGeometry relative="1" as="geometry">
            <Array as="points">
              <mxPoint x="358" y="896" />
              <mxPoint x="325" y="896" />
            </Array>
          </mxGeometry>
        </mxCell>
        <mxCell id="Q4vxLiz5nYjD_q5xdy93-97" value="0" style="edgeLabel;html=1;align=center;verticalAlign=middle;resizable=0;points=[];" vertex="1" connectable="0" parent="Q4vxLiz5nYjD_q5xdy93-96">
          <mxGeometry x="0.039" y="-1" relative="1" as="geometry">
            <mxPoint y="13" as="offset" />
          </mxGeometry>
        </mxCell>
      </root>
    </mxGraphModel>
  </diagram>
</mxfile>
